<?xml version="1.0" encoding="UTF-8"?>
<svg xmlns="http://www.w3.org/2000/svg" xmlns:xlink="http://www.w3.org/1999/xlink" width="200px" height="67px" viewBox="0 0 201 67" version="1.1">
<g id="surface1">
<path style=" stroke:none;fill-rule:nonzero;fill:rgb(22.352941%,20.784314%,21.176471%);fill-opacity:1;" d="M 94.71875 4.464844 L 90.28125 16.417969 L 88.539062 16.417969 L 84.085938 4.464844 L 85.84375 4.464844 L 89.410156 14.078125 L 92.996094 4.464844 L 94.71875 4.464844 "/>
<path style=" stroke:none;fill-rule:nonzero;fill:rgb(22.352941%,20.784314%,21.176471%);fill-opacity:1;" d="M 97.773438 4.464844 L 97.773438 16.417969 L 96.097656 16.417969 L 96.097656 4.464844 L 97.773438 4.464844 "/>
<path style=" stroke:none;fill-rule:nonzero;fill:rgb(22.352941%,20.784314%,21.176471%);fill-opacity:1;" d="M 102.550781 12.25 L 106.75 12.25 L 104.652344 6.753906 Z M 105.523438 4.464844 L 110.078125 16.417969 L 108.339844 16.417969 L 107.3125 13.71875 L 101.988281 13.71875 L 100.964844 16.417969 L 99.222656 16.417969 L 103.78125 4.464844 L 105.523438 4.464844 "/>
<path style=" stroke:none;fill-rule:nonzero;fill:rgb(22.352941%,20.784314%,21.176471%);fill-opacity:1;" d="M 120.316406 16.585938 C 117.601562 16.585938 115.570312 15.238281 115.570312 11.414062 L 115.570312 4.464844 L 117.242188 4.464844 L 117.242188 11.414062 C 117.242188 14.179688 118.660156 14.949219 120.316406 14.949219 C 121.972656 14.949219 123.390625 14.179688 123.390625 11.414062 L 123.390625 4.464844 L 125.0625 4.464844 L 125.0625 11.414062 C 125.0625 15.238281 123.046875 16.585938 120.316406 16.585938 "/>
<path style=" stroke:none;fill-rule:nonzero;fill:rgb(22.352941%,20.784314%,21.176471%);fill-opacity:1;" d="M 131.324219 9.28125 C 130.675781 9.28125 130.078125 9.503906 129.617188 9.722656 L 128.917969 10.082031 L 128.917969 16.417969 L 127.246094 16.417969 L 127.246094 7.878906 L 128.625 7.878906 L 128.917969 8.632812 L 129.480469 8.339844 C 130.113281 8.015625 130.863281 7.710938 131.820312 7.710938 C 133.457031 7.710938 134.671875 8.800781 134.6875 10.800781 L 134.6875 16.417969 L 133.015625 16.417969 L 133.015625 11.277344 C 133.015625 9.828125 132.3125 9.28125 131.324219 9.28125 "/>
<path style=" stroke:none;fill-rule:nonzero;fill:rgb(22.352941%,20.784314%,21.176471%);fill-opacity:1;" d="M 138.335938 7.878906 L 138.335938 16.417969 L 136.679688 16.417969 L 136.679688 7.878906 Z M 138.40625 4.824219 L 138.40625 6.429688 L 136.613281 6.429688 L 136.613281 4.824219 L 138.40625 4.824219 "/>
<path style=" stroke:none;fill-rule:nonzero;fill:rgb(22.352941%,20.784314%,21.176471%);fill-opacity:1;" d="M 142.859375 16.417969 L 139.496094 7.878906 L 141.132812 7.878906 L 143.679688 14.332031 L 146.222656 7.878906 L 147.863281 7.878906 L 144.496094 16.417969 L 142.859375 16.417969 "/>
<path style=" stroke:none;fill-rule:nonzero;fill:rgb(22.352941%,20.784314%,21.176471%);fill-opacity:1;" d="M 149.785156 11.398438 L 154.464844 11.398438 C 154.398438 9.945312 153.613281 9.09375 152.28125 9.09375 C 151 9.09375 149.992188 9.84375 149.785156 11.398438 Z M 149.769531 12.625 C 149.871094 14.25 150.8125 15.152344 152.195312 15.152344 C 153.390625 15.152344 154.054688 14.640625 154.328125 13.804688 L 155.917969 13.804688 C 155.660156 15.511719 154.363281 16.585938 152.195312 16.585938 C 149.804688 16.585938 148.148438 14.964844 148.148438 12.300781 L 148.148438 11.960938 C 148.148438 9.332031 149.839844 7.710938 152.28125 7.710938 C 154.515625 7.710938 156.085938 9.230469 156.085938 11.910156 L 156.085938 12.625 L 149.769531 12.625 "/>
<path style=" stroke:none;fill-rule:nonzero;fill:rgb(22.352941%,20.784314%,21.176471%);fill-opacity:1;" d="M 159.941406 9.84375 L 159.359375 10.132812 L 159.359375 16.417969 L 157.6875 16.417969 L 157.6875 7.878906 L 159.070312 7.878906 L 159.359375 8.699219 L 159.941406 8.375 C 160.640625 7.984375 161.1875 7.878906 162.246094 7.878906 L 162.246094 9.46875 C 161.171875 9.46875 160.503906 9.570312 159.941406 9.84375 "/>
<path style=" stroke:none;fill-rule:nonzero;fill:rgb(22.352941%,20.784314%,21.176471%);fill-opacity:1;" d="M 166.648438 12.78125 L 166.101562 12.695312 C 164.410156 12.4375 163.199219 11.839844 163.199219 10.238281 C 163.199219 8.445312 164.820312 7.710938 166.683594 7.710938 C 168.609375 7.710938 169.941406 8.53125 170.0625 10.390625 L 168.476562 10.390625 C 168.371094 9.453125 167.671875 9.023438 166.648438 9.023438 C 165.589844 9.023438 164.789062 9.417969 164.789062 10.21875 C 164.789062 10.988281 165.4375 11.277344 166.835938 11.464844 L 167.332031 11.535156 C 169.140625 11.789062 170.183594 12.421875 170.183594 13.976562 C 170.183594 15.734375 168.765625 16.585938 166.648438 16.585938 C 164.566406 16.585938 163.148438 15.765625 163.011719 13.90625 L 164.582031 13.90625 C 164.804688 14.863281 165.4375 15.253906 166.664062 15.253906 C 167.84375 15.253906 168.542969 14.828125 168.542969 14.042969 C 168.527344 13.242188 168.03125 13.003906 166.648438 12.78125 "/>
<path style=" stroke:none;fill-rule:nonzero;fill:rgb(22.352941%,20.784314%,21.176471%);fill-opacity:1;" d="M 173.441406 7.878906 L 173.441406 16.417969 L 171.785156 16.417969 L 171.785156 7.878906 Z M 173.507812 4.824219 L 173.507812 6.429688 L 171.714844 6.429688 L 171.714844 4.824219 L 173.507812 4.824219 "/>
<path style=" stroke:none;fill-rule:nonzero;fill:rgb(22.352941%,20.784314%,21.176471%);fill-opacity:1;" d="M 177.808594 7.878906 L 180.199219 7.878906 L 180.199219 9.453125 L 177.808594 9.453125 L 177.808594 13.53125 C 177.808594 14.417969 178.082031 14.847656 178.953125 14.847656 L 180.300781 14.847656 L 180.300781 16.417969 L 178.628906 16.417969 C 176.75 16.417969 176.152344 15.445312 176.152344 13.546875 L 176.152344 9.453125 L 174.652344 9.453125 L 174.652344 7.878906 L 176.152344 7.878906 L 176.152344 5.8125 L 177.808594 5.8125 L 177.808594 7.878906 "/>
<path style=" stroke:none;fill-rule:nonzero;fill:rgb(22.352941%,20.784314%,21.176471%);fill-opacity:1;" d="M 184.582031 16.417969 L 181.015625 7.878906 L 182.738281 7.878906 L 185.402344 14.367188 L 187.949219 7.878906 L 189.621094 7.878906 L 184.925781 19.832031 L 183.253906 19.832031 L 184.582031 16.417969 "/>
<path style=" stroke:none;fill-rule:nonzero;fill:rgb(22.352941%,20.784314%,21.176471%);fill-opacity:1;" d="M 90.296875 33.652344 C 87.226562 33.652344 84.699219 31.449219 84.699219 27.523438 L 84.699219 27.371094 C 84.699219 23.492188 87.226562 21.359375 90.296875 21.359375 C 92.925781 21.359375 94.992188 22.710938 95.351562 25.21875 L 93.609375 25.21875 C 93.21875 23.785156 92.003906 23.015625 90.296875 23.015625 C 88.113281 23.015625 86.390625 24.519531 86.390625 27.371094 L 86.390625 27.523438 C 86.390625 30.410156 88.113281 31.996094 90.296875 31.996094 C 92.058594 31.996094 93.335938 31.074219 93.660156 29.742188 L 95.402344 29.742188 C 95.097656 32.183594 92.996094 33.652344 90.296875 33.652344 "/>
<path style=" stroke:none;fill-rule:nonzero;fill:rgb(22.352941%,20.784314%,21.176471%);fill-opacity:1;" d="M 98.230469 29.316406 C 98.230469 31.023438 99.222656 32.152344 100.726562 32.152344 C 102.296875 32.152344 103.21875 31.023438 103.21875 29.300781 L 103.21875 29.113281 C 103.21875 27.335938 102.277344 26.277344 100.757812 26.277344 C 99.289062 26.277344 98.230469 27.335938 98.230469 29.113281 Z M 104.890625 29.300781 C 104.890625 31.996094 103.148438 33.667969 100.726562 33.667969 C 98.386719 33.667969 96.558594 31.996094 96.558594 29.300781 L 96.558594 29.058594 C 96.558594 26.363281 98.421875 24.757812 100.757812 24.757812 C 103.148438 24.757812 104.890625 26.363281 104.890625 29.058594 L 104.890625 29.300781 "/>
<path style=" stroke:none;fill-rule:nonzero;fill:rgb(22.352941%,20.784314%,21.176471%);fill-opacity:1;" d="M 108.148438 21.53125 L 108.148438 33.480469 L 106.492188 33.480469 L 106.492188 21.53125 L 108.148438 21.53125 "/>
<path style=" stroke:none;fill-rule:nonzero;fill:rgb(22.352941%,20.784314%,21.176471%);fill-opacity:1;" d="M 111.867188 21.53125 L 111.867188 33.480469 L 110.210938 33.480469 L 110.210938 21.53125 L 111.867188 21.53125 "/>
<path style=" stroke:none;fill-rule:nonzero;fill:rgb(22.352941%,20.784314%,21.176471%);fill-opacity:1;" d="M 115.109375 28.460938 L 119.785156 28.460938 C 119.71875 27.011719 118.933594 26.15625 117.601562 26.15625 C 116.320312 26.15625 115.3125 26.910156 115.109375 28.460938 Z M 115.09375 29.691406 C 115.195312 31.3125 116.132812 32.21875 117.515625 32.21875 C 118.710938 32.21875 119.378906 31.707031 119.648438 30.871094 L 121.238281 30.871094 C 120.980469 32.578125 119.683594 33.652344 117.515625 33.652344 C 115.125 33.652344 113.46875 32.03125 113.46875 29.367188 L 113.46875 29.027344 C 113.46875 26.398438 115.160156 24.773438 117.601562 24.773438 C 119.839844 24.773438 121.410156 26.296875 121.410156 28.976562 L 121.410156 29.691406 L 115.09375 29.691406 "/>
<path style=" stroke:none;fill-rule:nonzero;fill:rgb(22.352941%,20.784314%,21.176471%);fill-opacity:1;" d="M 128.578125 31.3125 L 128.796875 31.160156 L 128.796875 27.148438 L 128.578125 26.996094 C 128.164062 26.738281 127.535156 26.363281 126.648438 26.363281 C 125.246094 26.363281 124.207031 27.351562 124.207031 29.113281 L 124.207031 29.351562 C 124.207031 30.988281 125.179688 31.945312 126.628906 31.945312 C 127.515625 31.945312 128.164062 31.585938 128.578125 31.3125 Z M 128.796875 32.613281 L 128.625 32.746094 C 128.25 33.039062 127.398438 33.53125 126.339844 33.53125 C 124.121094 33.53125 122.550781 31.980469 122.550781 29.402344 L 122.550781 29.078125 C 122.550781 26.5 124.121094 24.773438 126.339844 24.773438 C 127.398438 24.773438 128.25 25.269531 128.625 25.5625 L 128.796875 25.699219 L 129.089844 24.945312 L 130.453125 24.945312 L 130.453125 33.125 C 130.453125 35.683594 128.984375 37.066406 126.597656 37.066406 C 124.480469 37.066406 123.042969 36.109375 122.839844 34.234375 L 124.496094 34.234375 C 124.734375 35.171875 125.433594 35.582031 126.597656 35.582031 C 128.046875 35.582031 128.796875 34.746094 128.796875 33.175781 L 128.796875 32.613281 "/>
<path style=" stroke:none;fill-rule:nonzero;fill:rgb(22.352941%,20.784314%,21.176471%);fill-opacity:1;" d="M 133.710938 28.460938 L 138.386719 28.460938 C 138.320312 27.011719 137.535156 26.15625 136.203125 26.15625 C 134.921875 26.15625 133.914062 26.910156 133.710938 28.460938 Z M 133.691406 29.691406 C 133.796875 31.3125 134.734375 32.21875 136.117188 32.21875 C 137.3125 32.21875 137.980469 31.707031 138.25 30.871094 L 139.839844 30.871094 C 139.582031 32.578125 138.285156 33.652344 136.117188 33.652344 C 133.726562 33.652344 132.070312 32.03125 132.070312 29.367188 L 132.070312 29.027344 C 132.070312 26.398438 133.761719 24.773438 136.203125 24.773438 C 138.441406 24.773438 140.011719 26.296875 140.011719 28.976562 L 140.011719 29.691406 L 133.691406 29.691406 "/>
<path style="fill:none;stroke-width:7.4452;stroke-linecap:butt;stroke-linejoin:miter;stroke:rgb(23.137255%,22.745098%,26.27451%);stroke-opacity:1;stroke-miterlimit:10;" d="M 44.125935 1348.693412 L 183.917998 1213.14968 L 183.917998 1310.128821 " transform="matrix(0.10666,0,0,-0.10666,26.547455,192.499447)"/>
<path style="fill:none;stroke-width:7.4452;stroke-linecap:butt;stroke-linejoin:miter;stroke:rgb(23.137255%,22.745098%,26.27451%);stroke-opacity:1;stroke-miterlimit:10;" d="M 178.937196 1654.683113 L 334.990113 1705.553215 L 334.990113 1555.176947 L 44.125935 1484.163898 " transform="matrix(0.10666,0,0,-0.10666,26.547455,192.499447)"/>
<path style="fill:none;stroke-width:7.4452;stroke-linecap:butt;stroke-linejoin:miter;stroke:rgb(23.137255%,22.745098%,26.27451%);stroke-opacity:1;stroke-miterlimit:10;" d="M 44.125935 1484.163898 L -207.038323 1755.178115 L -207.038323 1594.107773 L 44.125935 1348.693412 " transform="matrix(0.10666,0,0,-0.10666,26.547455,192.499447)"/>
<path style="fill:none;stroke-width:7.4452;stroke-linecap:butt;stroke-linejoin:miter;stroke:rgb(23.137255%,22.745098%,26.27451%);stroke-opacity:1;stroke-miterlimit:10;" d="M 44.125935 1484.163898 L 178.937196 1611.613827 L 178.937196 1755.178115 L 44.125935 1619.70763 L 44.125935 1348.693412 " transform="matrix(0.10666,0,0,-0.10666,26.547455,192.499447)"/>
<path style="fill:none;stroke-width:7.4452;stroke-linecap:butt;stroke-linejoin:miter;stroke:rgb(23.137255%,22.745098%,26.27451%);stroke-opacity:1;stroke-miterlimit:10;" d="M 44.125935 1484.163898 L 334.990113 1408.93914 L 334.990113 1268.45123 L 44.125935 1348.693412 L -207.038323 1233.036264 L -207.038323 1379.200823 L -52.999701 1443.585012 " transform="matrix(0.10666,0,0,-0.10666,26.547455,192.499447)"/>
</g>
</svg>
